# xmcd
#
# Track frame offsets: 
#        150
#        14247
#        29175
#        45172
#        57785
#        71487
#        86045
#        100682
#        113435
#        128025
#        146197
#        151842
#        169742
#
# Disc length: 2423 seconds
#
# Revision: 4
# Processed by: cddbd v1.5.1PL2 Copyright (c) Steve Scherf et al.
# Submitted via: ExactAudioCopy v0.95b3
#
DISCID=aa09750d
DTITLE=5 Chinese Brothers - A Window Shopper's Christmas
DYEAR=1997
DGENRE=Christmas/Holiday
TTITLE0=Make The Rafters Ring
TTITLE1=Rockin' In The Manger
TTITLE2=And To All A Good Night
TTITLE3=Making Angels In The Sand
TTITLE4=Honky Tonk Christmas
TTITLE5=Missing Miss December
TTITLE6=Dear Santa
TTITLE7=Age-Old Story
TTITLE8=Christmas On Interstate 80
TTITLE9=The Fruitcake Song
TTITLE10=O Little Town Of Bethlehem
TTITLE11=Dept. Store Santa Claus Strike
TTITLE12=Christmas In Manhattan
EXTD=
EXTT0=
EXTT1=
EXTT2=
EXTT3=
EXTT4=
EXTT5=
EXTT6=
EXTT7=
EXTT8=
EXTT9=
EXTT10=
EXTT11=
EXTT12=
PLAYORDER=
